<svg width="94" height="94" viewBox="0 0 94 94" fill="none" xmlns="http://www.w3.org/2000/svg">
<rect width="94" height="94" rx="15" fill="#D9D9D9"/>
<path d="M83.1548 39.8092C80.1325 36.6792 76.4285 35.0879 72.1393 35.0879H54.25C53.5728 34.2526 53.2181 33.9361 52.7896 33.8042C52.4809 33.7075 51.9926 33.6504 51.4259 33.9141C51.1633 34.0328 51.0481 34.0856 48.8782 36.7188L47.8601 34.1779L47.1091 32.292L46.9386 31.8656L46.7037 31.2677H46.6991L46.5378 30.8589L39.8253 14.0308L39.8115 14H26.2898L7.02764 61.0685L7 61.1345H17.025L19.2686 55.6218L20.0472 53.7799H30.625C30.7448 53.7799 30.8462 53.8766 30.8462 53.9953V58.7342C30.8416 59.2134 31.2977 59.6003 31.8597 59.6003H37.918L40.0557 59.5959C40.1524 59.5959 40.2261 59.6706 40.2308 59.7629L40.2077 66.9505C40.2077 67.5 40.6408 67.9484 41.1752 67.9528H51.191V79.8397H59.3731V67.944H63.2983C63.7268 67.944 64.0861 67.6626 64.2151 67.2714H72.1393C76.4285 67.2714 80.1325 65.68 83.1502 62.55C86.1862 59.4332 87.725 55.6086 87.725 51.1906C87.725 46.7726 86.1862 42.948 83.1548 39.8092ZM30.1874 29.0477L33.0299 22.0316L35.8402 29.0477L37.7199 33.8042L37.4988 34.09L37.25 34.4065L36.9966 34.7318L36.7386 35.0703L36.4714 35.4132L36.2042 35.7649L35.9324 36.1121L35.6652 36.4638L35.3979 36.8111L35.1353 37.154L34.8773 37.4881L34.6286 37.8134L34.389 38.1255L34.1586 38.4245L33.9467 38.7058L33.744 38.9696L33.5597 39.207L33.3939 39.4224L33.251 39.6114L33.1267 39.7741L33.0299 39.9015L32.9608 39.9939L32.8594 40.117L32.666 40.3719L32.5692 40.495L32.4725 40.6225L32.3757 40.7456L32.279 40.8731L32.1822 40.9962L32.0901 41.1193L31.9933 41.2467L31.8966 41.3698L31.7998 41.4929L31.7077 41.616L31.6109 41.7391L31.5188 41.8622L31.422 41.9853L31.3253 42.1128L31.2332 42.2359L31.1364 42.3589L31.0443 42.482L30.9475 42.6051L30.8554 42.7282L30.7586 42.8513L30.6665 42.9744L30.5697 43.0975L30.473 43.2206L30.3808 43.3437L30.2841 43.4667L30.1874 43.5942L30.0906 43.7173L29.9985 43.8404L29.9017 43.9635L29.8603 44.0163L29.8142 44.0734L29.7681 44.1305L29.722 44.1921L29.6207 44.324L29.57 44.3943L29.5147 44.4647L29.4548 44.5394L29.3995 44.6141L29.2798 44.7724L29.2153 44.8515L29.1922 44.8823H23.6684L30.1874 29.0477ZM29.2613 48.6761H29.2567C28.2017 48.6761 28.4966 47.5727 28.8743 47.0715C29.3765 46.4033 30.0169 45.5637 30.4684 44.979C30.4776 44.9614 30.4914 44.9438 30.5006 44.9306C30.5145 44.913 30.5283 44.8999 30.5421 44.8823C30.6296 44.768 30.708 44.6713 30.7724 44.5833C31.8044 43.2513 32.7903 41.9501 33.8315 40.6093C34.237 40.0862 36.5082 37.1057 38.176 34.956C38.1898 34.9384 38.199 34.9252 38.2129 34.912C38.2221 34.8944 38.2313 34.8813 38.2451 34.8681C39.1849 33.6548 39.9175 32.7316 39.9912 32.692C40.1432 32.6173 40.2676 32.6129 40.3736 32.6481C40.6316 32.7316 41.5253 34.024 41.7557 34.3274L46.1508 40.0378C45.9343 40.3104 45.6993 40.5917 45.4598 40.8907C45.2294 41.172 44.9898 41.4665 44.7411 41.7699C44.1744 42.46 43.7506 42.9832 43.5847 43.181C43.1194 43.7437 42.6633 44.302 42.2072 44.8559C42.198 44.8735 42.1841 44.8867 42.1703 44.8999C42.1657 44.913 42.1565 44.9218 42.1473 44.9306C42.1335 44.9482 42.1243 44.9658 42.1104 44.979C41.986 45.1285 41.8663 45.2735 41.7465 45.423C41.1522 46.1527 40.5579 46.8781 39.9451 47.6122C39.9313 47.6298 39.9175 47.6474 39.9037 47.665C39.7009 47.9068 39.4153 48.2584 39.0974 48.6541L29.2613 48.6761ZM38.7749 58.7298H37.7522L32.8825 58.7386H31.8597V53.7799V53.6832V52.039L31.8643 51.1774H31.8689L37.1855 51.1862C37.0657 51.4588 36.9782 51.7533 36.9551 52.0522C36.9137 52.4303 36.969 52.804 37.144 53.1512C37.2131 53.2831 37.3421 53.4897 37.5725 53.6832C37.5909 53.7008 37.6093 53.7183 37.6324 53.7315C37.6508 53.7491 37.6738 53.7667 37.6923 53.7799C37.7107 53.7931 37.7291 53.8019 37.7475 53.8151C37.9963 53.9865 38.328 54.1184 38.7703 54.1579V58.7298H38.7749ZM63.2983 66.9461H51.2923L51.191 66.9505H42.1473H41.1798V65.9526L41.2028 56.501H41.2074V55.5031H46.3489L46.4595 55.5075H51.191L51.2923 55.5119H56.2679L56.3785 55.5163H59.2717H59.3731H62.3262L63.2937 55.5207V65.9394L63.2983 66.9373V66.9461ZM59.3731 52.9622H59.2717L55.3603 52.971H55.2498L51.2923 52.9798H51.191L39.7931 53.0062H39.0421C38.9408 53.0062 38.8532 52.9974 38.7749 52.9842C38.2313 52.8875 38.1115 52.4831 38.1852 52.0566C38.2359 51.7445 38.4017 51.4148 38.5768 51.195H38.5814C38.6413 51.1159 38.7058 51.0367 38.7749 50.9532C38.8671 50.8345 38.9684 50.7114 39.0744 50.584C39.1158 50.5268 39.1619 50.4697 39.208 50.4125C39.4061 50.1707 39.6088 49.9245 39.7977 49.6872C40.1156 49.3003 40.4104 48.9354 40.6408 48.6497C40.7191 48.553 40.7928 48.4651 40.8573 48.3859C41.0738 48.1266 41.2858 47.8672 41.4977 47.6078H41.5023C42.5159 46.3725 43.5018 45.1548 44.5384 43.902C44.5983 43.8272 44.695 43.7129 44.8148 43.5635C44.8562 43.5151 44.8977 43.4667 44.9438 43.4096C45.0083 43.3261 45.0866 43.2338 45.1649 43.137C45.2294 43.0579 45.2985 42.9744 45.3768 42.8821C45.492 42.7326 45.6256 42.57 45.7684 42.4029C45.8422 42.3106 45.9159 42.2227 45.9896 42.1259C46.0587 42.038 46.1324 41.9501 46.2061 41.8622C46.4226 41.594 46.6576 41.3083 46.8972 41.0137C47.1229 40.7368 47.3533 40.4511 47.5928 40.1653C48.1595 39.4663 48.7492 38.7454 49.3021 38.0728C49.3159 38.0552 49.3297 38.042 49.3389 38.0288C49.3527 38.0112 49.3666 37.9981 49.3758 37.9849C50.0807 37.132 50.721 36.3627 51.1864 35.8132C51.2048 35.7912 51.2186 35.7693 51.237 35.7517C51.2555 35.7341 51.2693 35.7121 51.2877 35.6945C51.4674 35.4835 51.6148 35.3121 51.73 35.1846C51.7438 35.167 51.7622 35.1494 51.7714 35.1362C51.7899 35.1186 51.8037 35.1011 51.8175 35.0879C51.8912 35.0131 51.9327 34.9692 51.9511 34.9604C52.1308 34.8769 52.2828 34.8681 52.4118 34.9076C52.4671 34.9252 52.5546 34.9912 52.656 35.0879C52.6698 35.1055 52.6836 35.1186 52.7021 35.1362C52.7159 35.1494 52.7343 35.167 52.7481 35.1846C53.195 35.6462 53.8631 36.5518 54.0704 36.8067L57.2308 40.6621L57.5395 41.0357L58.249 41.9018L58.5392 42.2578L59.5436 43.4799L59.5804 43.5239L59.6219 43.5722L65.1089 50.263C65.5189 50.7554 66.0211 51.1862 66.2054 51.7841C66.3574 52.2808 66.4265 52.949 65.7677 52.949L59.3685 52.9622H59.3731ZM77.3545 56.589C75.9217 58.066 74.171 58.8178 72.1393 58.8178H64.2658V54.4613C64.2658 54.2678 64.427 54.114 64.6298 54.114H65.4913L65.7723 54.1096C66.3574 54.1096 66.855 53.881 67.1775 53.4722C67.5691 52.971 67.6382 52.2896 67.3802 51.4544C67.1636 50.7554 66.7029 50.2499 66.3344 49.841C66.2422 49.7399 66.1501 49.6388 66.0718 49.5465L61.1745 43.5722H72.1393C74.171 43.5722 75.9217 44.324 77.3545 45.8054C78.8103 47.2869 79.5474 49.0981 79.5474 51.1906C79.5474 53.2831 78.8103 55.1075 77.3545 56.589Z" fill="#29134B"/>
</svg>
